<svg width="100" height="100" viewBox="0 0 100 100" fill="none" xmlns="http://www.w3.org/2000/svg">
<path fill-rule="evenodd" clip-rule="evenodd" d="M27.79 82.3933C27.1948 82.3339 26.6022 82.2516 26.0133 82.1467C25.581 82.0692 25.1767 81.8792 24.8411 81.5957C24.5056 81.3123 24.2506 80.9455 24.1019 80.5322C23.9532 80.1189 23.916 79.6737 23.9941 79.2414C24.0722 78.8092 24.2628 78.4052 24.5467 78.07C25.9142 76.4578 26.8481 74.5235 27.26 72.45C27.3367 72.0667 27.1867 71.3933 26.4133 70.64C20.9133 65.29 17.5 58.0333 17.5 50C17.5 33.2333 32.26 20 50 20C67.74 20 82.5 33.2333 82.5 50C82.5 66.7667 67.74 80 50 80C47.2233 80 44.5233 79.6767 41.9433 79.07C37.7263 81.7205 32.7461 82.8899 27.79 82.3933Z" fill="#6F89DD"/>
</svg>
